<svg width="17" height="19" viewBox="0 0 17 19" fill="none" xmlns="http://www.w3.org/2000/svg">
<path d="M15.6455 2.60948H13.0088V1.02734C13.0088 0.736109 12.7727 0.5 12.4815 0.5H0.527344C0.236109 0.5 0 0.736109 0 1.02734V16.918C0 17.7903 0.709699 18.5 1.58203 18.5H14.0634C15.2266 18.5 16.1728 17.5537 16.1728 16.3906V3.13682C16.1729 2.84559 15.9368 2.60948 15.6455 2.60948ZM1.05469 16.918V1.55469H11.9541V16.3906C11.9541 16.7747 12.0577 17.1348 12.2379 17.4453H1.582C1.29125 17.4453 1.05469 17.2088 1.05469 16.918ZM15.1182 16.3906C15.1182 16.9722 14.645 17.4453 14.0635 17.4453C13.4819 17.4453 13.0088 16.9722 13.0088 16.3906V3.66417H15.1182V16.3906Z" fill="#FE0000"/>
<path d="M10.3721 2.60938H2.63672C2.34548 2.60938 2.10938 2.84548 2.10938 3.13672V5.2463C2.10938 5.53754 2.34548 5.77365 2.63672 5.77365H10.372C10.6633 5.77365 10.8994 5.53754 10.8994 5.2463V3.13672C10.8994 2.84548 10.6633 2.60938 10.3721 2.60938ZM9.84474 4.71896H3.16406V3.66406H9.8447V4.71896H9.84474Z" fill="#FE0000"/>
<path d="M2.63672 9.99272H6.5044C6.79563 9.99272 7.03174 9.75661 7.03174 9.46537V7.35579C7.03174 7.06455 6.79563 6.82844 6.5044 6.82844H2.63672C2.34548 6.82844 2.10938 7.06455 2.10938 7.35579V9.46537C2.10938 9.75661 2.34548 9.99272 2.63672 9.99272ZM3.16406 7.88313H5.97706V8.93803H3.16406V7.88313Z" fill="#FE0000"/>
<path d="M10.3721 8.93803H8.61399C8.32275 8.93803 8.08664 9.17414 8.08664 9.46537C8.08664 9.75661 8.32275 9.99272 8.61399 9.99272H10.3721C10.6633 9.99272 10.8994 9.75661 10.8994 9.46537C10.8994 9.1741 10.6633 8.93803 10.3721 8.93803Z" fill="#FE0000"/>
<path d="M10.3721 6.82844H8.61399C8.32275 6.82844 8.08664 7.06455 8.08664 7.35579C8.08664 7.64702 8.32275 7.88313 8.61399 7.88313H10.3721C10.6633 7.88313 10.8994 7.64702 10.8994 7.35579C10.8994 7.06455 10.6633 6.82844 10.3721 6.82844Z" fill="#FE0000"/>
<path d="M10.3721 13.1571H2.63672C2.34548 13.1571 2.10938 13.3932 2.10938 13.6844C2.10938 13.9757 2.34548 14.2118 2.63672 14.2118H10.372C10.6633 14.2118 10.8994 13.9757 10.8994 13.6844C10.8994 13.3932 10.6633 13.1571 10.3721 13.1571Z" fill="#FE0000"/>
<path d="M10.3721 11.0475H2.63672C2.34548 11.0475 2.10938 11.2837 2.10938 11.5749C2.10938 11.8661 2.34548 12.1022 2.63672 12.1022H10.372C10.6633 12.1022 10.8994 11.8661 10.8994 11.5749C10.8994 11.2836 10.6633 11.0475 10.3721 11.0475Z" fill="#FE0000"/>
<path d="M8.26249 15.2666H2.63672C2.34548 15.2666 2.10938 15.5027 2.10938 15.794C2.10938 16.0852 2.34548 16.3213 2.63672 16.3213H8.26249C8.55373 16.3213 8.78984 16.0852 8.78984 15.794C8.78984 15.5027 8.55373 15.2666 8.26249 15.2666Z" fill="#FE0000"/>
</svg>
