<svg width="18" height="19" viewBox="0 0 18 19" fill="none" xmlns="http://www.w3.org/2000/svg">
<path d="M17.535 6.16462C16.9182 5.54777 15.9145 5.5478 15.2975 6.16476C15.1077 6.35471 13.896 7.56736 13.7109 7.75263V3.57357C13.7109 3.15099 13.5464 2.75373 13.2475 2.45493L11.756 0.963359C11.4572 0.664531 11.0599 0.5 10.6374 0.5H1.58203C0.709699 0.5 0 1.2097 0 2.08203V16.918C0 17.7903 0.709699 18.5 1.58203 18.5H12.1289C13.0012 18.5 13.7109 17.7903 13.7109 16.918V12.2292L17.535 8.40196C18.1532 7.78371 18.1534 6.78295 17.535 6.16462ZM10.5469 1.55469C10.6465 1.55469 10.8385 1.53743 11.0103 1.70913L12.5018 3.2007C12.6692 3.36808 12.6563 3.55149 12.6563 3.66406H10.5469V1.55469ZM12.6562 16.918C12.6562 17.2087 12.4197 17.4453 12.1289 17.4453H1.58203C1.29125 17.4453 1.05469 17.2087 1.05469 16.918V2.08203C1.05469 1.79125 1.29125 1.55469 1.58203 1.55469H9.49219V4.19141C9.49219 4.48264 9.7283 4.71875 10.0195 4.71875H12.6562V8.80823C12.6562 8.80823 11.1004 10.3654 11.1004 10.3654L10.355 11.1109C10.2971 11.1687 10.2534 11.2393 10.2276 11.317L9.48175 13.5543C9.41857 13.7438 9.46789 13.9528 9.60915 14.094C9.75059 14.2354 9.95959 14.2845 10.1488 14.2214L12.3861 13.4756C12.4638 13.4497 12.5344 13.4061 12.5923 13.3482L12.6562 13.2842V16.918ZM11.4736 11.4838L12.2194 12.2295L11.9345 12.5144L10.8159 12.8873L11.1887 11.7686L11.4736 11.4838ZM12.965 11.4836L12.2192 10.7378C12.6163 10.3404 14.3801 8.57511 14.7542 8.20073L15.4999 8.9465L12.965 11.4836ZM16.789 7.65634L16.2454 8.20041L15.4997 7.45464L16.0434 6.91039C16.2492 6.70476 16.5837 6.7048 16.7893 6.91039C16.9948 7.11605 16.9959 7.44944 16.789 7.65634Z" fill="#FE0000"/>
<path d="M10.0195 5.77344H2.63672C2.34548 5.77344 2.10938 6.00955 2.10938 6.30078C2.10938 6.59202 2.34548 6.82812 2.63672 6.82812H10.0195C10.3108 6.82812 10.5469 6.59202 10.5469 6.30078C10.5469 6.00955 10.3108 5.77344 10.0195 5.77344Z" fill="#FE0000"/>
<path d="M7.91016 7.88281H2.63672C2.34548 7.88281 2.10938 8.11892 2.10938 8.41016C2.10938 8.70139 2.34548 8.9375 2.63672 8.9375H7.91016C8.20139 8.9375 8.4375 8.70139 8.4375 8.41016C8.4375 8.11892 8.20139 7.88281 7.91016 7.88281Z" fill="#FE0000"/>
<path d="M7.91016 9.99219H2.63672C2.34548 9.99219 2.10938 10.2283 2.10938 10.5195C2.10938 10.8108 2.34548 11.0469 2.63672 11.0469H7.91016C8.20139 11.0469 8.4375 10.8108 8.4375 10.5195C8.4375 10.2283 8.20139 9.99219 7.91016 9.99219Z" fill="#FE0000"/>
<path d="M7.91016 12.1016H2.63672C2.34548 12.1016 2.10938 12.3377 2.10938 12.6289C2.10938 12.9201 2.34548 13.1562 2.63672 13.1562H7.91016C8.20139 13.1562 8.4375 12.9201 8.4375 12.6289C8.4375 12.3377 8.20139 12.1016 7.91016 12.1016Z" fill="#FE0000"/>
<path d="M10.0195 15.3359H6.85547C6.56423 15.3359 6.32812 15.572 6.32812 15.8633C6.32812 16.1545 6.56423 16.3906 6.85547 16.3906H10.0195C10.3108 16.3906 10.5469 16.1545 10.5469 15.8633C10.5469 15.572 10.3108 15.3359 10.0195 15.3359Z" fill="#FE0000"/>
</svg>
