<svg width="13" height="18" viewBox="0 0 13 18" fill="none" xmlns="http://www.w3.org/2000/svg">
<path d="M11.9531 2.67188H9.83661C9.38686 1.12994 7.96069 0 6.27539 0C5.88702 0 5.57227 0.314758 5.57227 0.703125V2.67188H0.703125C0.314758 2.67188 0 2.98663 0 3.375V17.2969C0 17.6852 0.314758 18 0.703125 18H11.9531C12.3415 18 12.6562 17.6852 12.6562 17.2969V3.375C12.6562 2.98663 12.3415 2.67188 11.9531 2.67188ZM6.27539 16.5938H1.40625V4.07812H5.57227V11.2852C5.57227 11.6735 5.88702 11.9883 6.27539 11.9883C7.54514 11.9883 8.57812 13.0213 8.57812 14.291C8.57812 15.5608 7.54514 16.5938 6.27539 16.5938ZM8.57812 11.3854C8.12013 11.0216 7.57452 10.7637 6.97852 10.6489V1.51598C7.90535 1.81398 8.57812 2.68437 8.57812 3.70898V11.3854ZM11.25 16.5938H9.18086C9.68362 15.9607 9.98438 15.1603 9.98438 14.291V4.07812H11.25V16.5938Z" fill="#FE0000"/>
</svg>
