<svg width="138" height="22" viewBox="0 0 138 22" fill="none" xmlns="http://www.w3.org/2000/svg">
<path d="M6.90816 6.27692V10.3385H8.5092C10.2684 10.3385 11.1479 9.66154 11.1479 8.30769C11.1479 7.56923 10.9305 7.04615 10.4957 6.73846C10.0608 6.43077 9.35913 6.27692 8.3906 6.27692H6.90816ZM7.11571 16.6154V21.5385H0V0H9.07253C15.279 0 18.3822 2.65641 18.3822 7.96923C18.3822 10.7385 17.562 12.8718 15.9214 14.3692C14.3006 15.8667 11.8299 16.6154 8.5092 16.6154H7.11571Z" fill="white"/>
<path d="M26.059 14.8V21.5385H19.7141V5.84615H25.8811V8.4H25.9404C26.731 6.49231 28.0751 5.53846 29.9726 5.53846C30.526 5.53846 31.119 5.61026 31.7515 5.75385V11.6C30.9214 11.3744 30.1307 11.2615 29.3796 11.2615C28.1937 11.2615 27.3437 11.5385 26.8298 12.0923C26.3159 12.6462 26.059 13.5487 26.059 14.8Z" fill="white"/>
<path d="M48.5123 15.8462V20.4615C48.0973 20.8513 47.2374 21.2103 45.9329 21.5385C44.6481 21.8462 43.2645 22 41.7821 22C38.5207 22 36.1488 21.2923 34.6664 19.8769C33.2037 18.4615 32.4724 16.2872 32.4724 13.3538C32.4724 10.7897 33.2333 8.82051 34.7553 7.44615C36.2773 6.07179 38.4416 5.38462 41.2484 5.38462C42.7506 5.38462 44.0354 5.6 45.1027 6.03077C46.1899 6.44103 47.0299 7.0359 47.6229 7.81539C48.2356 8.57436 48.6804 9.42564 48.9571 10.3692C49.2338 11.2923 49.3722 12.3385 49.3722 13.5077V15.1077H38.9654C39.1631 15.8256 39.5387 16.3282 40.0921 16.6154C40.6653 16.9026 41.5251 17.0462 42.6715 17.0462C45.162 17.0462 47.109 16.6462 48.5123 15.8462ZM38.9061 12.0308H43.1459C43.1855 10.6974 42.5529 10.0308 41.2484 10.0308C40.5566 10.0308 40.0229 10.1949 39.6474 10.5231C39.2718 10.8308 39.0247 11.3333 38.9061 12.0308Z" fill="white"/>
<path d="M50.6651 21.1385V16.1846C51.2581 16.4923 52.0981 16.7692 53.1853 17.0154C54.2922 17.241 55.3892 17.3538 56.4763 17.3538C57.1681 17.3538 57.6227 17.3231 57.8401 17.2615C58.0773 17.1795 58.1959 17.0462 58.1959 16.8615C58.1959 16.6359 57.9192 16.4615 57.3657 16.3385C56.8321 16.2154 56.1699 16.0821 55.3793 15.9385C54.6084 15.7949 53.8277 15.5795 53.037 15.2923C52.2464 14.9846 51.5744 14.4513 51.0209 13.6923C50.4872 12.9128 50.2204 11.9282 50.2204 10.7385C50.2204 8.99487 50.7936 7.6718 51.94 6.76923C53.0864 5.84615 55.0828 5.38462 57.9291 5.38462C59.9847 5.38462 61.8427 5.62051 63.503 6.09231V10.8615C62.1194 10.3077 60.4591 10.0308 58.5221 10.0308C57.2768 10.0308 56.6542 10.2154 56.6542 10.5846C56.6542 10.8103 56.921 10.9744 57.4547 11.0769C58.0081 11.159 58.6802 11.2615 59.4708 11.3846C60.2614 11.5077 61.0422 11.7026 61.8131 11.9692C62.6037 12.2359 63.2659 12.7487 63.7995 13.5077C64.353 14.2667 64.6297 15.241 64.6297 16.4308C64.6297 20.1436 61.991 22 56.7135 22C54.4799 22 52.4638 21.7128 50.6651 21.1385Z" fill="white"/>
<path d="M65.7211 21.1385V16.1846C66.3141 16.4923 67.1542 16.7692 68.2413 17.0154C69.3482 17.241 70.4452 17.3538 71.5323 17.3538C72.2241 17.3538 72.6787 17.3231 72.8961 17.2615C73.1333 17.1795 73.2519 17.0462 73.2519 16.8615C73.2519 16.6359 72.9752 16.4615 72.4218 16.3385C71.8881 16.2154 71.2259 16.0821 70.4353 15.9385C69.6644 15.7949 68.8837 15.5795 68.093 15.2923C67.3024 14.9846 66.6304 14.4513 66.0769 13.6923C65.5433 12.9128 65.2764 11.9282 65.2764 10.7385C65.2764 8.99487 65.8496 7.6718 66.996 6.76923C68.1425 5.84615 70.1388 5.38462 72.9851 5.38462C75.0407 5.38462 76.8987 5.62051 78.5591 6.09231V10.8615C77.1755 10.3077 75.5151 10.0308 73.5781 10.0308C72.3328 10.0308 71.7102 10.2154 71.7102 10.5846C71.7102 10.8103 71.977 10.9744 72.5107 11.0769C73.0642 11.159 73.7362 11.2615 74.5268 11.3846C75.3175 11.5077 76.0982 11.7026 76.8691 11.9692C77.6597 12.2359 78.3219 12.7487 78.8555 13.5077C79.409 14.2667 79.6857 15.241 79.6857 16.4308C79.6857 20.1436 77.047 22 71.7695 22C69.5359 22 67.5198 21.7128 65.7211 21.1385Z" fill="white"/>
<path d="M90.5543 15.8462V15.3846C90.0206 15.241 89.4178 15.1692 88.7457 15.1692C87.6388 15.1692 87.0854 15.4974 87.0854 16.1538C87.0854 16.8513 87.6586 17.2 88.805 17.2C89.9712 17.2 90.5543 16.7487 90.5543 15.8462ZM96.8991 12V21.5385H90.8508V19.2923H90.7915C90.495 19.9897 89.9712 20.5949 89.2201 21.1077C88.469 21.6 87.4511 21.8462 86.1663 21.8462C84.4467 21.8462 83.1125 21.4154 82.1637 20.5538C81.2149 19.6923 80.7406 18.4923 80.7406 16.9538C80.7406 15.2513 81.3039 14.0205 82.4305 13.2615C83.577 12.4821 85.3262 12.0923 87.6784 12.0923C88.5876 12.0923 89.5462 12.1846 90.5543 12.3692V12C90.5543 11.5487 90.3764 11.2103 90.0206 10.9846C89.6649 10.759 88.9632 10.6462 87.9156 10.6462C85.8797 10.6462 83.9921 11.0974 82.2527 12V6.76923C84.2688 5.84615 86.5814 5.38462 89.1905 5.38462C91.8391 5.38462 93.786 5.87692 95.0313 6.86154C96.2765 7.84615 96.8991 9.55898 96.8991 12Z" fill="white"/>
<path d="M106.38 18.4308C106.38 19.559 106.034 20.441 105.342 21.0769C104.651 21.6923 103.672 22 102.407 22C101.241 22 100.302 21.682 99.5904 21.0461C98.8986 20.3897 98.5527 19.5179 98.5527 18.4308C98.5527 17.2615 98.8789 16.3692 99.5311 15.7538C100.203 15.1385 101.162 14.8308 102.407 14.8308C103.593 14.8308 104.552 15.159 105.283 15.8154C106.014 16.4718 106.38 17.3436 106.38 18.4308Z" fill="white"/>
<path d="M114.397 14.8V21.5385H108.052V5.84614H114.219V8.39999H114.279C115.069 6.4923 116.413 5.53845 118.311 5.53845C118.864 5.53845 119.457 5.61025 120.09 5.75384V11.6C119.26 11.3744 118.469 11.2615 117.718 11.2615C116.532 11.2615 115.682 11.5385 115.168 12.0923C114.654 12.6461 114.397 13.5487 114.397 14.8Z" fill="white"/>
<path d="M121.486 16.0923V5.84614H127.83V13.9692C127.83 14.9128 127.959 15.559 128.216 15.9077C128.493 16.2564 128.927 16.4308 129.52 16.4308C130.291 16.4308 130.835 16.1949 131.151 15.7231C131.487 15.2308 131.655 14.359 131.655 13.1077V5.84614H138V21.5385H131.655V19.3846H131.596C130.667 21.0256 129.007 21.8461 126.615 21.8461C125.034 21.8461 123.778 21.3641 122.849 20.4C121.94 19.4359 121.486 18 121.486 16.0923Z" fill="white"/>
</svg>
