<svg width="158" height="19" viewBox="0 0 158 19" fill="none" xmlns="http://www.w3.org/2000/svg">
<path d="M13.4756 0.870239C17.101 0.870239 19.5365 3.03085 19.7385 5.91291C19.9617 9.09088 17.6781 13.0175 11.597 13.0175H7.77338L7.11736 17.8441H0.463867L2.79841 0.870239H13.4756ZM8.16295 9.01666H9.77607C12.3097 9.01666 13.061 7.68366 12.9821 6.54512C12.9427 6.01436 12.5906 4.87018 10.5793 4.87018H8.71509L8.16295 9.01666Z" fill="#FE0000"/>
<path d="M34.0297 0.870239C36.4114 0.870239 38.9807 2.08018 39.1682 4.75088C39.35 7.34454 37.3329 9.38397 34.4809 9.76818L34.4578 9.82078C35.6602 9.96733 37.3272 10.7405 37.507 12.9217L37.9264 17.8451H30.9738L30.8766 13.6009C30.843 12.096 29.6896 11.9297 28.9932 11.9297H27.5042L26.6789 17.8451H20.0244L22.359 0.871178H34.0297V0.870239ZM27.6966 8.29051H29.3347C32.1896 8.29051 32.3368 6.83257 32.2897 6.15433C32.1867 4.6776 30.3976 4.65318 29.9493 4.65318H28.2131L27.6966 8.29051Z" fill="#FE0000"/>
<path d="M57.0412 0.870239L56.5006 4.87018H47.9848L47.6337 7.32106H55.7792L55.2549 11.1998H47.1134L46.7517 13.8433H55.4415L54.8798 17.8441H39.6846L42.0191 0.870239H57.0412Z" fill="#FE0000"/>
<path d="M73.0262 5.52589C71.0716 4.87019 69.27 4.65319 67.8521 4.65319C66.7844 4.65319 64.8808 4.75089 64.9616 5.91292C65.0184 6.68792 66.0928 6.83259 67.174 7.02892C69.5672 7.46574 72.9829 8.0491 73.2119 11.3191C73.3369 13.1153 72.4924 14.8841 71.4708 15.879C69.3777 17.9174 65.7436 18.1354 63.9564 18.1354C60.9024 18.1354 58.5111 17.6713 56.8672 17.2383L57.4847 12.9199C59.6779 13.7916 61.7835 14.0622 63.3225 14.0622C66.0284 14.0622 66.4987 13.3341 66.4564 12.7273C66.4074 12.0227 65.6523 11.88 64.9712 11.7325C61.4189 10.9556 58.4765 10.4709 58.2446 7.14916C58.0253 4.02098 60.4897 0.579041 67.4183 0.579041C69.1805 0.579041 71.3987 0.722768 73.637 1.15865L73.0262 5.52589Z" fill="#FE0000"/>
<path d="M89.4656 5.52589C87.5072 4.87019 85.7046 4.65319 84.2886 4.65319C83.2209 4.65319 81.3154 4.75089 81.3981 5.91292C81.451 6.68792 82.5303 6.83259 83.6115 7.02892C85.9989 7.46574 89.4185 8.0491 89.6445 11.3191C89.7744 13.1153 88.9269 14.8841 87.9044 15.879C85.8133 17.9174 82.1801 18.1354 80.392 18.1354C77.336 18.1354 74.9466 17.6713 73.3018 17.2383L73.9183 12.9199C76.1163 13.7916 78.219 14.0622 79.7571 14.0622C82.4629 14.0622 82.9343 13.3341 82.8948 12.7273C82.841 12.0227 82.0897 11.88 81.4087 11.7325C77.8545 10.9556 74.9139 10.4709 74.6792 7.14916C74.4609 4.02098 76.9262 0.579041 83.8519 0.579041C85.6151 0.579041 87.8352 0.722768 90.0755 1.15865L89.4656 5.52589Z" fill="#FE0000"/>
<path d="M105.893 0.870239L109.74 17.8441H102.74L102.063 14.2059H96.8255L95.1691 17.8441H88.5146L96.9332 0.870239H105.893ZM100.689 4.89554L98.1587 10.205H101.856L100.79 4.89554H100.689Z" fill="#FE0000"/>
<path d="M111.822 13.1631H117.233L116.592 17.8441H111.18L111.822 13.1631Z" fill="#AAAAAA"/>
<path d="M132.503 0.870239C134.889 0.870239 137.456 2.08018 137.643 4.75088C137.824 7.34454 135.808 9.38397 132.955 9.76818L132.934 9.82078C134.135 9.96733 135.803 10.7405 135.983 12.9217L136.402 17.8451H129.449L129.349 13.6009C129.319 12.096 128.166 11.9297 127.469 11.9297H125.982L125.155 17.8451H118.498L120.835 0.871178H132.503V0.870239ZM126.175 8.29051H127.81C130.664 8.29051 130.813 6.83257 130.764 6.15433C130.662 4.6776 128.871 4.65318 128.424 4.65318H126.687L126.175 8.29051Z" fill="#AAAAAA"/>
<path d="M145.795 10.934C145.746 11.3201 145.7 11.7099 145.726 12.096C145.746 12.3882 145.795 12.7038 145.961 12.9715C146.134 13.2618 146.59 13.77 147.531 13.77C149.444 13.77 149.822 12.0735 149.967 10.9575L151.347 0.871216H158L156.639 10.8382C156.242 13.7465 154.913 18.1373 146.994 18.1373C140.759 18.1373 139.172 15.3003 139.014 13.0411C138.97 12.4145 139.03 11.8321 139.111 11.1782L140.521 0.871216H147.175L145.795 10.934Z" fill="#AAAAAA"/>
</svg>
