<svg width="16" height="18" viewBox="0 0 16 18" fill="none" xmlns="http://www.w3.org/2000/svg">
<path d="M8 9C5.475 9 3.42857 6.98555 3.42857 4.5C3.42857 2.01445 5.475 0 8 0C10.525 0 12.5714 2.01445 12.5714 4.5C12.5714 6.98555 10.525 9 8 9ZM4.8 10.125H5.39643C6.18929 10.4836 7.07143 10.6875 8 10.6875C8.92857 10.6875 9.80714 10.4836 10.6036 10.125H11.2C13.85 10.125 16 12.2414 16 14.85V16.3125C16 17.2441 15.2321 18 14.2857 18H1.71429C0.767858 18 0 17.2441 0 16.3125V14.85C0 12.2414 2.15 10.125 4.8 10.125Z" fill="#525458"/>
</svg>
