<svg width="13" height="19" viewBox="0 0 13 19" fill="none" xmlns="http://www.w3.org/2000/svg">
<path d="M0.5625 16.5312C0.251824 16.5312 0 16.2794 0 15.9688V2.82031C0 1.54087 1.04087 0.5 2.32031 0.5H12.375C12.6857 0.5 12.9375 0.751859 12.9375 1.0625V14C12.9375 14.3106 12.6857 14.5625 12.375 14.5625C12.0643 14.5625 11.8125 14.3106 11.8125 14V1.625H2.32031C1.6612 1.625 1.125 2.1612 1.125 2.82031V15.9688C1.125 16.2794 0.873176 16.5312 0.5625 16.5312Z" fill="#FE0000"/>
<path d="M12.375 18.5H2.53125C1.13551 18.5 0 17.3645 0 15.9688C0 14.573 1.13551 13.4375 2.53125 13.4375H12.375C12.6857 13.4375 12.9375 13.6894 12.9375 14C12.9375 14.3106 12.6857 14.5625 12.375 14.5625H2.53125C1.75584 14.5625 1.125 15.1933 1.125 15.9688C1.125 16.7442 1.75584 17.375 2.53125 17.375H12.375C12.6857 17.375 12.9375 17.6269 12.9375 17.9375C12.9375 18.2481 12.6857 18.5 12.375 18.5Z" fill="#FE0000"/>
<path d="M12.375 16.5312H2.53125C2.22057 16.5312 1.96875 16.2794 1.96875 15.9688C1.96875 15.6581 2.22057 15.4062 2.53125 15.4062H12.375C12.6857 15.4062 12.9375 15.6581 12.9375 15.9688C12.9375 16.2794 12.6857 16.5312 12.375 16.5312Z" fill="#FE0000"/>
<path d="M3.09375 14.5625C2.78307 14.5625 2.53125 14.3106 2.53125 14V1.0625C2.53125 0.751859 2.78307 0.5 3.09375 0.5C3.40443 0.5 3.65625 0.751859 3.65625 1.0625V14C3.65625 14.3106 3.40443 14.5625 3.09375 14.5625Z" fill="#FE0000"/>
</svg>
