<?xml version="1.0" encoding="utf-8"?>
<!-- Generator: Adobe Illustrator 15.0.0, SVG Export Plug-In . SVG Version: 6.00 Build 0)  -->
<!DOCTYPE svg PUBLIC "-//W3C//DTD SVG 1.1//EN" "http://www.w3.org/Graphics/SVG/1.1/DTD/svg11.dtd">
<svg version="1.1" id="Слой_1" xmlns="http://www.w3.org/2000/svg" xmlns:xlink="http://www.w3.org/1999/xlink" x="0px" y="0px"
	 width="35px" height="35px" viewBox="0 0 35 35" enable-background="new 0 0 35 35" xml:space="preserve">
<linearGradient id="SVGID_1_" gradientUnits="userSpaceOnUse" x1="0" y1="17.5" x2="35" y2="17.5">
	<stop  offset="0" style="stop-color:#9FCC3B"/>
	<stop  offset="0.1933" style="stop-color:#9CCA3B"/>
	<stop  offset="0.3604" style="stop-color:#91C53B"/>
	<stop  offset="0.5179" style="stop-color:#7FBD3B"/>
	<stop  offset="0.6694" style="stop-color:#66B13B"/>
	<stop  offset="0.8167" style="stop-color:#46A13C"/>
	<stop  offset="0.959" style="stop-color:#1F8E3C"/>
	<stop  offset="1" style="stop-color:#12883C"/>
</linearGradient>
<path fill="url(#SVGID_1_)" d="M34.357,15.978c0.414,0,0.626-0.23,0.643-0.656V5c0-2.761-2.238-5-5-5H5C2.238,0,0,2.239,0,5v25
	c0,2.762,2.238,5,5,5h25c2.762,0,5-2.238,5-5V19.712c-0.035-0.389-0.25-0.598-0.643-0.598h-2.061v1.443
	c0,1.076-0.152,1.629-1.073,1.629h-0.923c-0.923,0-1.077-0.553-1.077-1.629v-1.443h-1.445c-1.074,0-1.628-0.154-1.628-1.076v-0.984
	c0-0.922,0.554-1.076,1.628-1.076h1.445v-1.445c0-1.076,0.154-1.629,1.077-1.629h0.923c0.921,0,1.073,0.553,1.073,1.629v1.445
	H34.357z M11.622,25.534c0,1.08-0.186,1.635-1.076,1.635H9.501c-0.893,0-1.076-0.555-1.076-1.635V12.259
	c0-0.617-0.185-0.83-0.584-0.83H7.194c-1.076,0-1.628-0.184-1.628-1.076V9.339c0-0.891,0.553-1.078,1.628-1.078h2.798
	c1.076,0,1.63,0.188,1.63,1.078V25.534z M17.574,23.874h5.439c1.137,0,1.721,0.188,1.721,1.139v0.924
	c0,1.016-0.584,1.199-1.721,1.199h-7.47c-1.137,0-1.72-0.217-1.72-1.568v-1.844c0-2.891,0.399-4.887,3.011-5.994
	c2.275-0.955,4.733-1.045,4.733-4.396c0-2.18-0.768-2.334-2.335-2.334c-1.507,0-2.09,0.154-2.09,1.688
	c0,0.617-0.431,0.74-1.137,0.74h-0.738c-0.862,0-1.2-0.217-1.2-1.047c0-3.719,1.568-4.549,5.165-4.549
	c5.164,0,5.563,1.998,5.563,6.209c0,6.887-7.776,4.826-7.776,8.113v1.018C17.02,23.661,17.143,23.874,17.574,23.874z"/>
</svg>
