<?xml version="1.0" encoding="utf-8"?>
<!-- Generator: Adobe Illustrator 15.0.0, SVG Export Plug-In . SVG Version: 6.00 Build 0)  -->
<!DOCTYPE svg PUBLIC "-//W3C//DTD SVG 1.1//EN" "http://www.w3.org/Graphics/SVG/1.1/DTD/svg11.dtd">
<svg version="1.1" id="Слой_1" xmlns="http://www.w3.org/2000/svg" xmlns:xlink="http://www.w3.org/1999/xlink" x="0px" y="0px"
	 width="35px" height="35px" viewBox="0 0 35 35" enable-background="new 0 0 35 35" xml:space="preserve">
<g>
	<linearGradient id="SVGID_1_" gradientUnits="userSpaceOnUse" x1="16.5063" y1="21.4609" x2="21.8408" y2="21.4609">
		<stop  offset="0" style="stop-color:#EF4B30"/>
		<stop  offset="0.3579" style="stop-color:#EC4930"/>
		<stop  offset="0.6671" style="stop-color:#E1442E"/>
		<stop  offset="0.9575" style="stop-color:#CF3B2C"/>
		<stop  offset="1" style="stop-color:#CC392C"/>
	</linearGradient>
	<path fill="url(#SVGID_1_)" d="M18.976,18.626c-0.884,0-1.708,0.184-2.469,0.366v2.896c0,1.799,0.64,2.408,2.804,2.408
		c2.257,0,2.53-0.976,2.53-2.927C21.841,19.235,21.323,18.626,18.976,18.626z"/>
	<linearGradient id="SVGID_2_" gradientUnits="userSpaceOnUse" x1="0" y1="17.5" x2="35" y2="17.5">
		<stop  offset="0" style="stop-color:#EF4B30"/>
		<stop  offset="0.3579" style="stop-color:#EC4930"/>
		<stop  offset="0.6671" style="stop-color:#E1442E"/>
		<stop  offset="0.9575" style="stop-color:#CF3B2C"/>
		<stop  offset="1" style="stop-color:#CC392C"/>
	</linearGradient>
	<path fill="url(#SVGID_2_)" d="M34.359,15.945c0.427,0,0.641-0.244,0.641-0.701v-4.39c0-1.128-0.396-2.104-1.188-2.927
		l-6.921-7.012c-0.701-0.701-1.585-0.915-2.591-0.915H10.703c-1.006,0-1.89,0.213-2.591,0.915l-6.92,7.012
		C0.368,8.75,0.002,9.727,0.002,10.854v13.444c-0.031,1.128,0.335,1.95,1.128,2.743l6.798,6.799
		c0.793,0.792,1.677,1.158,2.774,1.158H24.3c1.097,0,1.98-0.366,2.774-1.158l6.798-6.799C34.665,26.28,35,25.427,35,24.299v-4.634
		c-0.03-0.396-0.244-0.609-0.641-0.609h-2.042v1.433c0,1.066-0.152,1.615-1.067,1.615h-0.915c-0.914,0-1.066-0.549-1.066-1.615
		v-1.433h-1.433c-1.066,0-1.616-0.153-1.616-1.067v-0.976c0-0.915,0.55-1.067,1.616-1.067h1.433v-1.433
		c0-1.066,0.152-1.616,1.066-1.616h0.915c0.915,0,1.067,0.549,1.067,1.616v1.433H34.359z M11.147,25.485
		c0,1.067-0.183,1.616-1.067,1.616H9.044c-0.884,0-1.067-0.549-1.067-1.616v-13.17c0-0.609-0.183-0.823-0.579-0.823h-0.64
		c-1.067,0-1.616-0.183-1.616-1.066V9.419c0-0.884,0.549-1.067,1.616-1.067h2.774c1.067,0,1.616,0.183,1.616,1.067V25.485z
		 M19.25,27.345c-6.25,0-5.854-3.048-5.884-9.938c0-7.134,0.641-9.39,6.219-9.39c3.567,0,5.122,0.915,5.122,4.512
		c0,0.823-0.336,1.037-1.189,1.037h-0.731c-0.701,0-1.128-0.183-1.128-0.793c0-1.494-0.457-1.616-2.53-1.616
		c-2.409,0-2.622,1.037-2.622,3.902v0.61c0,0.366,0.243,0.487,0.548,0.427c0.793-0.152,1.555-0.213,2.317-0.213
		c3.688,0,5.609,0.975,5.609,5.122C24.981,26.034,23.213,27.345,19.25,27.345z"/>
</g>
</svg>
