<?xml version="1.0" encoding="utf-8"?>
<!-- Generator: Adobe Illustrator 15.0.0, SVG Export Plug-In . SVG Version: 6.00 Build 0)  -->
<!DOCTYPE svg PUBLIC "-//W3C//DTD SVG 1.1//EN" "http://www.w3.org/Graphics/SVG/1.1/DTD/svg11.dtd">
<svg version="1.1" id="Слой_1" xmlns="http://www.w3.org/2000/svg" xmlns:xlink="http://www.w3.org/1999/xlink" x="0px" y="0px"
	 width="35px" height="35px" viewBox="0 0 35 35" enable-background="new 0 0 35 35" xml:space="preserve">
<linearGradient id="SVGID_1_" gradientUnits="userSpaceOnUse" x1="0" y1="17.5" x2="35" y2="17.5">
	<stop  offset="0" style="stop-color:#EF4B30"/>
	<stop  offset="0.3579" style="stop-color:#EC4930"/>
	<stop  offset="0.6671" style="stop-color:#E1442E"/>
	<stop  offset="0.9575" style="stop-color:#CF3B2C"/>
	<stop  offset="1" style="stop-color:#CC392C"/>
</linearGradient>
<path fill="url(#SVGID_1_)" d="M17.044,13.415c0-2.042,0.671-2.652,2.347-2.652c1.678,0,2.349,0.61,2.349,2.652
	c0,1.981-0.671,2.653-2.349,2.653C17.715,16.068,17.044,15.396,17.044,13.415z M19.391,18.902c-1.95,0-2.652,0.885-2.652,2.805
	c0,1.921,0.702,2.683,2.652,2.683c1.951,0,2.653-0.762,2.653-2.683C22.044,19.787,21.342,18.902,19.391,18.902z M32.317,15.945
	v-1.433c0-1.066-0.152-1.616-1.067-1.616h-0.915c-0.914,0-1.066,0.549-1.066,1.616v1.433h-1.433c-1.066,0-1.616,0.152-1.616,1.067
	v0.976c0,0.915,0.55,1.067,1.616,1.067h1.433v1.434c0,1.066,0.152,1.615,1.066,1.615h0.915c0.915,0,1.067-0.549,1.067-1.615v-1.434
	h2.042c0.396,0,0.61,0.214,0.641,0.609v4.635c0,1.127-0.335,1.981-1.128,2.743l-6.798,6.799c-0.794,0.792-1.678,1.158-2.774,1.158
	H10.702c-1.097,0-1.981-0.366-2.773-1.158L1.13,27.042c-0.792-0.793-1.159-1.616-1.128-2.743V10.854
	c0-1.128,0.366-2.104,1.189-2.927l6.92-7.012c0.701-0.701,1.585-0.915,2.591-0.915H24.3c1.006,0,1.89,0.213,2.591,0.915l6.921,7.012
	C34.604,8.75,35,9.727,35,10.854v4.39c0,0.457-0.214,0.701-0.641,0.701H32.317z M11.348,9.36c0-0.884-0.549-1.067-1.616-1.067H6.958
	c-1.067,0-1.616,0.183-1.616,1.067v1.006c0,0.884,0.549,1.067,1.616,1.067h0.64c0.396,0,0.579,0.214,0.579,0.823v13.169
	c0,1.067,0.184,1.616,1.067,1.616h1.036c0.884,0,1.067-0.549,1.067-1.616V9.36z M25.184,22.134c0-2.286-0.152-4.024-2.195-4.817
	c1.707-1.249,1.737-2.53,1.737-3.566v-1.037c-0.183-3.445-1.341-4.756-5.335-4.756c-3.993,0-5.151,1.311-5.335,4.756v1.037
	c0,1.036,0.031,2.317,1.738,3.566c-2.043,0.792-2.195,2.531-2.195,4.817c0,3.384,1.189,5.061,5.792,5.152
	C23.994,27.194,25.184,25.518,25.184,22.134z"/>
</svg>
