<?xml version="1.0" encoding="utf-8"?>
<!-- Generator: Adobe Illustrator 15.0.0, SVG Export Plug-In . SVG Version: 6.00 Build 0)  -->
<!DOCTYPE svg PUBLIC "-//W3C//DTD SVG 1.1//EN" "http://www.w3.org/Graphics/SVG/1.1/DTD/svg11.dtd">
<svg version="1.1" id="Слой_1" xmlns="http://www.w3.org/2000/svg" xmlns:xlink="http://www.w3.org/1999/xlink" x="0px" y="0px"
	 width="35px" height="35px" viewBox="0 0 35 35" enable-background="new 0 0 35 35" xml:space="preserve">
<g>
	<linearGradient id="SVGID_1_" gradientUnits="userSpaceOnUse" x1="-0.25" y1="17.5" x2="35.2608" y2="17.5">
		<stop  offset="0" style="stop-color:#9DCB3B"/>
		<stop  offset="0.1958" style="stop-color:#9AC93B"/>
		<stop  offset="0.3651" style="stop-color:#8FC43C"/>
		<stop  offset="0.5246" style="stop-color:#7DBB3D"/>
		<stop  offset="0.6781" style="stop-color:#64AF3E"/>
		<stop  offset="0.8273" style="stop-color:#449F40"/>
		<stop  offset="0.9713" style="stop-color:#1D8B42"/>
		<stop  offset="1" style="stop-color:#148743"/>
	</linearGradient>
	<path fill="url(#SVGID_1_)" d="M34.357,15.81c0.414,0,0.626-0.227,0.643-0.654V5c0-2.761-2.238-5-5-5H5C2.238,0,0,2.239,0,5v25
		c0,2.762,2.238,5,5,5h25c2.762,0,5-2.238,5-5V19.546c-0.035-0.389-0.25-0.602-0.643-0.602h-2.061v1.445
		c0,1.078-0.152,1.627-1.073,1.627h-0.923c-0.923,0-1.077-0.549-1.077-1.627v-1.445h-1.445c-1.074,0-1.628-0.154-1.628-1.074v-0.986
		c0-0.92,0.554-1.074,1.628-1.074h1.445v-1.443c0-1.078,0.154-1.631,1.077-1.631h0.923c0.921,0,1.073,0.553,1.073,1.631v1.443
		H34.357z M17.247,27.246c-6.303,0-5.902-3.073-5.934-10.022c0-7.191,0.646-9.469,6.271-9.469c3.597,0,5.163,0.924,5.163,4.551
		c0,0.832-0.336,1.047-1.197,1.047h-0.739c-0.706,0-1.135-0.186-1.135-0.801c0-1.506-0.463-1.629-2.552-1.629
		c-2.429,0-2.643,1.043-2.643,3.934v0.613c0,0.373,0.244,0.494,0.551,0.434c0.801-0.154,1.57-0.217,2.338-0.217
		c3.719,0,5.654,0.984,5.654,5.166C23.024,25.922,21.243,27.246,17.247,27.246z"/>
	<linearGradient id="SVGID_2_" gradientUnits="userSpaceOnUse" x1="-0.25" y1="21.3135" x2="35.2608" y2="21.3135">
		<stop  offset="0" style="stop-color:#9DCB3B"/>
		<stop  offset="0.1958" style="stop-color:#9AC93B"/>
		<stop  offset="0.3651" style="stop-color:#8FC43C"/>
		<stop  offset="0.5246" style="stop-color:#7DBB3D"/>
		<stop  offset="0.6781" style="stop-color:#64AF3E"/>
		<stop  offset="0.8273" style="stop-color:#449F40"/>
		<stop  offset="0.9713" style="stop-color:#1D8B42"/>
		<stop  offset="1" style="stop-color:#148743"/>
	</linearGradient>
	<path fill="url(#SVGID_2_)" d="M16.97,18.454c-0.891,0-1.721,0.182-2.488,0.365v2.924c0,1.813,0.643,2.43,2.826,2.43
		c2.274,0,2.551-0.986,2.551-2.953C19.858,19.067,19.336,18.454,16.97,18.454z"/>
</g>
</svg>
