<?xml version="1.0" encoding="utf-8"?>
<!-- Generator: Adobe Illustrator 15.0.0, SVG Export Plug-In . SVG Version: 6.00 Build 0)  -->
<!DOCTYPE svg PUBLIC "-//W3C//DTD SVG 1.1//EN" "http://www.w3.org/Graphics/SVG/1.1/DTD/svg11.dtd">
<svg version="1.1" id="Слой_1" xmlns="http://www.w3.org/2000/svg" xmlns:xlink="http://www.w3.org/1999/xlink" x="0px" y="0px"
	 width="50px" height="30px" viewBox="0 0 50 30" enable-background="new 0 0 50 30" xml:space="preserve">
<g>
	<path fill-rule="evenodd" clip-rule="evenodd" fill="#F89F1B" d="M24.993,26.095c2.641,2.406,6.193,3.874,10.039,3.874
		C43.308,29.969,50,23.276,50,15c0-8.248-6.692-14.969-14.969-14.969c-3.846,0-7.397,1.467-10.039,3.874
		C21.969,6.664,20.062,10.598,20.062,15S21.969,23.365,24.993,26.095z"/>
	<path fill-rule="evenodd" clip-rule="evenodd" fill="#D71E25" d="M4.931,26.095c2.642,2.406,6.193,3.874,10.038,3.874
		c8.277,0,14.969-6.692,14.969-14.969c0-8.248-6.692-14.969-14.969-14.969c-3.845,0-7.396,1.467-10.038,3.874
		C1.908,6.664,0,10.598,0,15S1.908,23.365,4.931,26.095z"/>
	<path fill-rule="evenodd" clip-rule="evenodd" fill="#FFFFFF" d="M42.295,11.252c0-0.198,0.154-0.353,0.375-0.353
		c0.198,0,0.353,0.154,0.353,0.353s-0.154,0.375-0.353,0.375C42.449,11.627,42.295,11.45,42.295,11.252L42.295,11.252z
		 M42.67,11.539c0.132,0,0.265-0.133,0.265-0.287s-0.133-0.265-0.265-0.265c-0.154,0-0.286,0.11-0.286,0.265
		S42.516,11.539,42.67,11.539L42.67,11.539z M42.604,11.429v-0.133h0.066l0.044,0.133h0.088l-0.065-0.154
		c0.044,0,0.065-0.044,0.065-0.088c0-0.022-0.021-0.045-0.044-0.066c-0.021-0.022-0.066-0.022-0.088-0.022h-0.132v0.331H42.604
		L42.604,11.429z M42.604,11.23h0.044c0.022,0,0.044,0,0.044,0c0.022,0,0.022-0.022,0.022-0.044c0,0,0-0.022-0.022-0.022
		c0,0-0.021,0-0.044,0h-0.044V11.23z"/>
	<path fill-rule="evenodd" clip-rule="evenodd" fill="#121952" d="M21.21,11.891c-0.375,0.11-0.639,0.154-0.925,0.154
		c-0.573,0-0.925-0.353-0.925-1.013c0-0.133,0.022-0.265,0.044-0.419l0.066-0.44l0.066-0.375l0.529-3.173h1.167L21.1,7.33h0.727
		l-0.176,1.168h-0.727l-0.331,1.895c0,0.066-0.022,0.133-0.022,0.177c0,0.242,0.132,0.353,0.419,0.353
		c0.154,0,0.242-0.022,0.375-0.044L21.21,11.891z"/>
	<path fill-rule="evenodd" clip-rule="evenodd" fill="#121952" d="M24.978,11.847c-0.419,0.133-0.837,0.198-1.256,0.198
		c-1.3,0-2.071-0.705-2.071-2.07c0-1.587,0.903-2.776,2.137-2.776c0.992,0,1.63,0.661,1.63,1.696c0,0.33-0.044,0.661-0.154,1.146
		h-2.423c0,0.066,0,0.089,0,0.133c0,0.551,0.353,0.814,1.058,0.814c0.44,0,0.837-0.088,1.278-0.286L24.978,11.847L24.978,11.847z
		 M24.251,9.093c0-0.088,0-0.176,0-0.22c0-0.375-0.22-0.596-0.573-0.596c-0.397,0-0.661,0.287-0.771,0.815H24.251z"/>
	<polygon fill-rule="evenodd" clip-rule="evenodd" fill="#121952" points="11.891,11.957 10.679,11.957 11.384,7.572 9.82,11.957 
		8.982,11.957 8.895,7.595 8.146,11.957 6.978,11.957 7.925,6.251 9.666,6.251 9.731,9.776 10.899,6.251 12.838,6.251 	"/>
	<path fill-rule="evenodd" clip-rule="evenodd" fill="#121952" d="M14.821,9.886c-0.132,0-0.154-0.021-0.242-0.021
		c-0.683,0-1.036,0.265-1.036,0.705c0,0.309,0.176,0.484,0.441,0.484C14.579,11.054,14.799,10.569,14.821,9.886L14.821,9.886z
		 M15.791,11.957h-1.058l0.022-0.484c-0.264,0.374-0.617,0.572-1.278,0.572c-0.595,0-1.08-0.528-1.08-1.277
		c0-0.221,0.044-0.419,0.088-0.595c0.199-0.728,0.925-1.168,2.027-1.19c0.132,0,0.353,0,0.529,0.022
		c0.044-0.154,0.044-0.221,0.044-0.309c0-0.309-0.242-0.396-0.815-0.396c-0.353,0-0.727,0.066-1.013,0.132l-0.154,0.066h-0.088
		l0.176-1.035c0.573-0.177,0.97-0.242,1.41-0.242c1.058,0,1.608,0.462,1.608,1.365c0,0.221,0.022,0.396-0.066,0.903L15.9,11.142
		l-0.044,0.287l-0.044,0.242v0.154L15.791,11.957z"/>
	<path fill-rule="evenodd" clip-rule="evenodd" fill="#121952" d="M30.839,7.374c0.33,0,0.639,0.089,1.079,0.309l0.198-1.256
		c-0.11-0.044-0.132-0.044-0.286-0.109l-0.507-0.11c-0.154-0.045-0.33-0.066-0.551-0.066c-0.595,0-0.947,0-1.322,0.242
		c-0.198,0.11-0.44,0.286-0.727,0.595l-0.133-0.044l-1.255,0.882l0.065-0.485h-1.3l-0.727,4.627h1.211l0.44-2.489
		c0,0,0.177-0.353,0.265-0.463c0.221-0.286,0.419-0.286,0.661-0.286c0.044,0,0.088,0,0.088,0c-0.021,0.264-0.044,0.572-0.044,0.881
		c0,1.521,0.859,2.468,2.182,2.468c0.33,0,0.616-0.044,1.058-0.177l0.22-1.3c-0.396,0.198-0.727,0.287-1.035,0.287
		c-0.705,0-1.124-0.507-1.124-1.389C29.296,8.256,29.913,7.374,30.839,7.374z"/>
	<path fill-rule="evenodd" clip-rule="evenodd" fill="#121952" d="M41.128,6.251l-0.265,1.63c-0.287-0.44-0.639-0.639-1.102-0.639
		c-0.639,0-1.234,0.353-1.608,1.035l0,0l-0.771-0.462l0.066-0.485h-1.3l-0.749,4.627h1.233l0.396-2.489c0,0,0.309-0.353,0.396-0.463
		c0.177-0.221,0.375-0.286,0.529-0.286c-0.133,0.396-0.221,0.859-0.221,1.365c0,1.168,0.617,1.939,1.498,1.939
		c0.441,0,0.794-0.154,1.124-0.529l-0.066,0.463h1.168l0.926-5.706H41.128L41.128,6.251z M39.651,10.855
		c-0.419,0-0.617-0.286-0.617-0.903c0-0.903,0.375-1.564,0.947-1.564c0.419,0,0.64,0.331,0.64,0.926
		C40.621,10.217,40.225,10.855,39.651,10.855z"/>
	<path fill-rule="evenodd" clip-rule="evenodd" fill="#121952" d="M34.033,9.886c-0.132,0-0.154-0.021-0.242-0.021
		c-0.684,0-1.035,0.265-1.035,0.705c0,0.309,0.176,0.484,0.44,0.484C33.791,11.054,34.011,10.569,34.033,9.886L34.033,9.886z
		 M35.003,11.957h-1.058l0.021-0.484c-0.264,0.374-0.616,0.572-1.277,0.572c-0.595,0-1.124-0.506-1.124-1.277
		c0.022-1.102,0.837-1.785,2.159-1.785c0.133,0,0.353,0,0.528,0.022c0.045-0.154,0.045-0.221,0.045-0.309
		c0-0.309-0.242-0.396-0.815-0.396c-0.353,0-0.749,0.066-1.014,0.132l-0.176,0.066h-0.066l0.176-1.035
		c0.573-0.177,0.97-0.242,1.41-0.242c1.058,0,1.608,0.462,1.608,1.365c0,0.221,0.022,0.396-0.065,0.903l-0.243,1.652l-0.043,0.287
		l-0.045,0.242l-0.021,0.154V11.957z"/>
	<path fill-rule="evenodd" clip-rule="evenodd" fill="#121952" d="M18.324,8.322c0.242,0,0.573,0.021,0.925,0.065l0.176-1.079
		c-0.353-0.045-0.815-0.088-1.102-0.088c-1.344,0-1.807,0.727-1.807,1.586c0,0.551,0.264,0.97,0.903,1.256
		c0.507,0.242,0.595,0.286,0.595,0.484c0,0.287-0.264,0.463-0.749,0.463c-0.353,0-0.683-0.066-1.08-0.176l-0.132,1.057h0.022
		l0.221,0.045c0.066,0.021,0.176,0.044,0.308,0.044c0.309,0.044,0.551,0.044,0.705,0.044c1.344,0,1.917-0.507,1.917-1.542
		c0-0.64-0.309-1.014-0.925-1.278c-0.507-0.242-0.573-0.265-0.573-0.484C17.729,8.498,17.95,8.322,18.324,8.322z"/>
	<path fill-rule="evenodd" clip-rule="evenodd" fill="#FFFFFF" d="M32.447,6.074l-0.198,1.234C31.808,7.088,31.499,7,31.169,7
		c-0.925,0-1.564,0.881-1.564,2.137c0,0.859,0.441,1.389,1.146,1.389c0.309,0,0.64-0.089,1.036-0.287l-0.221,1.301
		c-0.44,0.109-0.727,0.153-1.079,0.153c-1.3,0-2.115-0.925-2.115-2.445c0-2.049,1.123-3.459,2.731-3.459
		c0.221,0,0.396,0.022,0.551,0.044l0.507,0.133C32.314,6.03,32.337,6.03,32.447,6.074z"/>
	<path fill-rule="evenodd" clip-rule="evenodd" fill="#FFFFFF" d="M28.547,6.934c-0.044-0.021-0.088-0.021-0.132-0.021
		c-0.396,0-0.617,0.198-0.991,0.749l0.109-0.705H26.41l-0.728,4.648h1.212c0.441-2.842,0.551-3.327,1.146-3.327
		c0.022,0,0.022,0,0.089,0c0.11-0.551,0.242-0.969,0.462-1.344H28.547z"/>
	<path fill-rule="evenodd" clip-rule="evenodd" fill="#FFFFFF" d="M21.519,11.539c-0.331,0.109-0.595,0.153-0.881,0.153
		c-0.617,0-0.97-0.353-0.97-1.013c0-0.133,0.022-0.265,0.044-0.419l0.066-0.463l0.066-0.353l0.529-3.173h1.212l-0.132,0.684h0.617
		l-0.176,1.146h-0.617l-0.331,1.917c0,0.088-0.022,0.154-0.022,0.198c0,0.242,0.132,0.353,0.419,0.353
		c0.154,0,0.242-0.022,0.33-0.044L21.519,11.539z"/>
	<path fill-rule="evenodd" clip-rule="evenodd" fill="#FFFFFF" d="M16.826,8.432c0,0.573,0.287,0.992,0.926,1.278
		c0.507,0.242,0.573,0.309,0.573,0.528c0,0.287-0.22,0.419-0.705,0.419c-0.353,0-0.683-0.066-1.08-0.198l-0.176,1.08h0.066
		l0.221,0.044c0.066,0.021,0.176,0.044,0.308,0.044c0.287,0.021,0.529,0.044,0.683,0.044c1.278,0,1.873-0.484,1.873-1.542
		c0-0.64-0.242-1.014-0.859-1.301c-0.507-0.22-0.573-0.286-0.573-0.484c0-0.265,0.199-0.396,0.595-0.396
		c0.242,0,0.573,0.044,0.881,0.088l0.176-1.079c-0.309-0.044-0.793-0.088-1.08-0.088C17.289,6.868,16.826,7.572,16.826,8.432z"/>
	<path fill-rule="evenodd" clip-rule="evenodd" fill="#FFFFFF" d="M41.767,11.604h-1.168l0.066-0.463
		c-0.331,0.353-0.684,0.507-1.124,0.507c-0.881,0-1.476-0.749-1.476-1.917c0-1.542,0.903-2.842,1.982-2.842
		c0.485,0,0.837,0.198,1.168,0.639l0.265-1.63h1.211L41.767,11.604L41.767,11.604z M39.96,10.503c0.573,0,0.97-0.639,0.97-1.564
		c0-0.572-0.221-0.903-0.64-0.903c-0.551,0-0.947,0.64-0.947,1.564C39.343,10.194,39.541,10.503,39.96,10.503z"/>
	<path fill-rule="evenodd" clip-rule="evenodd" fill="#FFFFFF" d="M25.242,11.494c-0.418,0.133-0.815,0.198-1.256,0.198
		c-1.366,0-2.071-0.727-2.071-2.07c0-1.608,0.903-2.776,2.137-2.776c0.991,0,1.63,0.661,1.63,1.696c0,0.33-0.044,0.661-0.132,1.146
		h-2.423c-0.022,0.066-0.022,0.089-0.022,0.133c0,0.528,0.353,0.814,1.08,0.814c0.419,0,0.815-0.088,1.256-0.286L25.242,11.494
		L25.242,11.494z M24.559,8.74c0-0.088,0-0.176,0-0.242c0-0.374-0.198-0.595-0.573-0.595s-0.661,0.309-0.771,0.837H24.559z"/>
	<polygon fill-rule="evenodd" clip-rule="evenodd" fill="#FFFFFF" points="12.199,11.604 10.987,11.604 11.692,7.221 10.128,11.604 
		9.291,11.604 9.203,7.242 8.454,11.604 7.33,11.604 8.277,5.898 10.018,5.898 10.084,9.424 11.251,5.898 13.146,5.898 	"/>
	<path fill-rule="evenodd" clip-rule="evenodd" fill="#FFFFFF" d="M15.218,9.533c-0.132-0.021-0.199-0.021-0.287-0.021
		c-0.683,0-1.036,0.242-1.036,0.705c0,0.286,0.176,0.484,0.441,0.484C14.843,10.701,15.196,10.217,15.218,9.533L15.218,9.533z
		 M16.099,11.604h-1.014l0.022-0.484c-0.309,0.374-0.705,0.551-1.278,0.551c-0.661,0-1.102-0.507-1.102-1.256
		c0-1.124,0.771-1.785,2.137-1.785c0.132,0,0.308,0,0.484,0.022c0.044-0.132,0.044-0.198,0.044-0.286
		c0-0.309-0.198-0.419-0.771-0.419c-0.353,0-0.749,0.044-1.013,0.132l-0.176,0.045l-0.11,0.021l0.176-1.035
		c0.617-0.177,1.014-0.242,1.454-0.242c1.058,0,1.608,0.462,1.608,1.344c0,0.242-0.022,0.418-0.11,0.925l-0.242,1.652l-0.044,0.287
		l-0.022,0.242l-0.022,0.154L16.099,11.604z"/>
	<path fill-rule="evenodd" clip-rule="evenodd" fill="#FFFFFF" d="M34.43,9.533c-0.132-0.021-0.198-0.021-0.286-0.021
		c-0.683,0-1.036,0.242-1.036,0.705c0,0.286,0.177,0.484,0.441,0.484C34.033,10.701,34.408,10.217,34.43,9.533L34.43,9.533z
		 M35.312,11.604h-1.014l0.021-0.484c-0.309,0.374-0.727,0.551-1.277,0.551c-0.661,0-1.124-0.507-1.124-1.256
		c0-1.124,0.793-1.785,2.159-1.785c0.132,0,0.309,0,0.485,0.022c0.044-0.132,0.044-0.198,0.044-0.286
		c0-0.309-0.198-0.419-0.771-0.419c-0.353,0-0.749,0.044-1.014,0.132l-0.176,0.045l-0.11,0.021l0.176-1.035
		c0.617-0.177,1.014-0.242,1.454-0.242c1.058,0,1.608,0.462,1.608,1.344c0,0.242-0.021,0.418-0.109,0.925l-0.243,1.652l-0.044,0.287
		l-0.044,0.242l-0.021,0.154V11.604z"/>
	<path fill-rule="evenodd" clip-rule="evenodd" fill="#FFFFFF" d="M38.572,6.934c-0.022-0.021-0.066-0.021-0.11-0.021
		c-0.396,0-0.64,0.198-1.014,0.749l0.11-0.705h-1.102l-0.749,4.648h1.233c0.419-2.842,0.551-3.327,1.124-3.327
		c0.044,0,0.044,0,0.088,0c0.11-0.551,0.265-0.969,0.463-1.344H38.572z"/>
	<g>
		<path fill="#121952" d="M44.799,17.729c0,0.289-0.029,0.586-0.086,0.889c-0.058,0.306-0.147,0.602-0.269,0.891
			c-0.123,0.291-0.281,0.564-0.474,0.824c-0.193,0.26-0.429,0.485-0.701,0.679c-0.275,0.192-0.594,0.347-0.952,0.458
			c-0.36,0.114-0.771,0.171-1.231,0.171c-0.463,0-0.867-0.066-1.211-0.199c-0.344-0.136-0.629-0.32-0.853-0.555
			c-0.223-0.234-0.39-0.515-0.5-0.836c-0.11-0.322-0.164-0.671-0.164-1.042c0-0.301,0.028-0.606,0.091-0.916
			c0.062-0.311,0.154-0.609,0.284-0.896c0.127-0.288,0.291-0.558,0.491-0.812c0.198-0.255,0.438-0.475,0.715-0.664
			c0.275-0.188,0.592-0.336,0.948-0.446s0.756-0.164,1.2-0.164c0.436,0,0.82,0.063,1.156,0.185c0.336,0.125,0.619,0.302,0.849,0.529
			c0.23,0.229,0.403,0.505,0.524,0.826C44.738,16.974,44.799,17.333,44.799,17.729L44.799,17.729z M42.851,17.754
			c0-0.17-0.021-0.328-0.061-0.471c-0.042-0.144-0.102-0.269-0.182-0.372c-0.079-0.102-0.175-0.183-0.289-0.243
			c-0.115-0.058-0.246-0.087-0.396-0.087c-0.256,0-0.485,0.072-0.688,0.218c-0.202,0.147-0.371,0.334-0.511,0.567
			c-0.137,0.229-0.243,0.489-0.316,0.778c-0.073,0.286-0.11,0.574-0.11,0.863c0,0.367,0.088,0.653,0.261,0.857
			c0.173,0.201,0.397,0.303,0.675,0.303c0.265,0,0.496-0.07,0.698-0.212c0.202-0.144,0.371-0.328,0.506-0.557
			c0.138-0.229,0.24-0.487,0.309-0.775C42.814,18.335,42.851,18.047,42.851,17.754z"/>
		<path fill-rule="evenodd" clip-rule="evenodd" fill="#121952" d="M33.785,21.42c-0.515,0.156-0.926,0.22-1.372,0.22
			c-0.961-0.001-1.51-0.501-1.51-1.439c0-0.188,0.034-0.376,0.068-0.595l0.103-0.657l0.104-0.501l0.823-4.506h1.887l-0.205,0.97
			h0.961l-0.275,1.628h-0.961l-0.514,2.722c0,0.126-0.034,0.22-0.034,0.282c0,0.344,0.205,0.5,0.651,0.5
			c0.24,0,0.377-0.031,0.515-0.063L33.785,21.42z"/>
		<path fill-rule="evenodd" clip-rule="evenodd" fill="#121952" d="M26.19,17.278c0,0.767,0.445,1.326,1.44,1.709
			c0.789,0.324,0.893,0.413,0.893,0.707c0,0.383-0.344,0.561-1.099,0.561c-0.549-0.001-1.063-0.089-1.681-0.266l-0.275,1.443h0.103
			l0.343,0.06c0.104,0.029,0.275,0.059,0.48,0.059c0.446,0.029,0.824,0.059,1.064,0.059c1.99,0,2.916-0.647,2.916-2.062
			c0-0.855-0.377-1.355-1.338-1.739c-0.789-0.294-0.893-0.383-0.893-0.647c0-0.354,0.31-0.53,0.927-0.53
			c0.378-0.001,0.893,0.059,1.373,0.117l0.274-1.443c-0.48-0.06-1.235-0.118-1.682-0.118C26.91,15.187,26.19,16.13,26.19,17.278z"/>
		<path fill-rule="evenodd" clip-rule="evenodd" fill="#121952" d="M24.991,21.374c-0.652,0.177-1.27,0.266-1.956,0.266
			c-2.127-0.001-3.226-0.973-3.226-2.771c0-2.15,1.407-3.712,3.329-3.712c1.544,0,2.54,0.884,2.54,2.269
			c0,0.442-0.069,0.884-0.206,1.532h-3.775c-0.034,0.089-0.034,0.118-0.034,0.177c0,0.707,0.549,1.09,1.681,1.09
			c0.652,0,1.27-0.117,1.956-0.383L24.991,21.374L24.991,21.374z M23.927,17.691c0-0.118,0-0.236,0-0.324
			c0-0.501-0.309-0.796-0.892-0.796s-1.029,0.413-1.201,1.12H23.927z"/>
		<polygon fill-rule="evenodd" clip-rule="evenodd" fill="#121952" points="12.637,21.521 10.629,21.521 11.798,15.658 
			9.206,21.521 7.819,21.521 7.673,15.688 6.432,21.521 4.57,21.521 6.14,13.891 9.023,13.891 9.133,18.604 11.068,13.891 
			14.207,13.891 		"/>
		<path fill-rule="evenodd" clip-rule="evenodd" fill="#121952" d="M17.41,18.752c-0.206-0.029-0.309-0.029-0.446-0.029
			c-1.063,0-1.612,0.324-1.612,0.942c0,0.383,0.274,0.648,0.686,0.648C16.827,20.313,17.376,19.665,17.41,18.752L17.41,18.752z
			 M18.783,21.521h-1.578l0.034-0.648c-0.48,0.501-1.098,0.736-1.99,0.736c-1.029,0-1.716-0.677-1.716-1.679
			c0-1.503,1.201-2.387,3.329-2.387c0.206,0,0.48,0,0.755,0.029c0.069-0.177,0.069-0.265,0.069-0.383c0-0.413-0.309-0.56-1.201-0.56
			c-0.549-0.001-1.167,0.059-1.579,0.177l-0.274,0.059l-0.171,0.029l0.274-1.385c0.96-0.235,1.579-0.324,2.265-0.324
			c1.647,0,2.505,0.619,2.505,1.798c0,0.324-0.034,0.56-0.171,1.237l-0.377,2.21l-0.069,0.383l-0.034,0.324l-0.035,0.206
			L18.783,21.521z"/>
		<path fill-rule="evenodd" clip-rule="evenodd" fill="#121952" d="M38.844,15.275c-0.068-0.03-0.138-0.03-0.206-0.03
			c-0.617,0-0.961,0.266-1.544,1.002l0.172-0.942h-1.75l-1.133,6.217h1.888c0.687-3.801,0.857-4.449,1.784-4.449
			c0.034,0,0.034,0,0.137,0c0.172-0.736,0.378-1.296,0.721-1.797H38.844z"/>
		<path fill-rule="evenodd" clip-rule="evenodd" fill="#121952" d="M44.461,21.022c0-0.265,0.206-0.47,0.499-0.47
			c0.265,0,0.47,0.205,0.47,0.47c0,0.264-0.205,0.499-0.47,0.499C44.667,21.521,44.461,21.286,44.461,21.022L44.461,21.022z
			 M44.96,21.404c0.176,0,0.353-0.177,0.353-0.382c0-0.206-0.177-0.353-0.353-0.353c-0.205,0-0.382,0.146-0.382,0.353
			C44.578,21.228,44.755,21.404,44.96,21.404L44.96,21.404z M44.872,21.257v-0.176h0.088l0.059,0.176h0.117l-0.088-0.205
			c0.059,0,0.088-0.059,0.088-0.117c0-0.029-0.029-0.059-0.059-0.088c-0.029-0.03-0.088-0.03-0.117-0.03h-0.176v0.44H44.872
			L44.872,21.257z M44.872,20.993h0.059c0.029,0,0.059,0,0.059,0c0.029,0,0.029-0.029,0.029-0.059c0,0,0-0.029-0.029-0.029
			c0,0-0.029,0-0.059,0h-0.059V20.993z"/>
	</g>
</g>
</svg>
