<?xml version="1.0" encoding="utf-8"?>
<!-- Generator: Adobe Illustrator 15.0.0, SVG Export Plug-In . SVG Version: 6.00 Build 0)  -->
<!DOCTYPE svg PUBLIC "-//W3C//DTD SVG 1.1//EN" "http://www.w3.org/Graphics/SVG/1.1/DTD/svg11.dtd">
<svg version="1.1" id="Слой_1" xmlns="http://www.w3.org/2000/svg" xmlns:xlink="http://www.w3.org/1999/xlink" x="0px" y="0px"
	 width="210px" height="33px" viewBox="0 0 210 33" enable-background="new 0 0 210 33" xml:space="preserve">
<g>
	<path fill="#961B1E" d="M22.07,17.206L9.294,6.768l10.381-6.364H7.419c-1.891,0-3.653,1.55-3.915,3.441L0.032,29.153
		c-0.259,1.895,1.078,3.443,2.972,3.443h28.169c1.891,0,3.653-1.549,3.914-3.443l1.267-9.234l-16.014,9.89L7.565,19.37l3.118-1.913
		l10.168,8.312l16.063-9.924l0.304-2.231l-16.012,9.893L8.431,13.065l3.118-1.913l10.166,8.313L37.778,9.54l0.305-2.226
		L22.07,17.206z"/>
	<g>
		<path fill="#961B1E" d="M59.752,8.378c3.769,0,6.301,2.3,6.511,5.368c0.232,3.383-2.142,7.563-8.464,7.563h-3.975l-0.682,5.138
			h-6.917l2.427-18.069H59.752z M54.229,17.05h1.677c2.634,0,3.415-1.419,3.333-2.631c-0.041-0.565-0.407-1.783-2.498-1.783h-1.938
			L54.229,17.05z"/>
		<path fill="#961B1E" d="M81.12,8.378c2.476,0,5.147,1.288,5.342,4.131c0.189,2.761-1.908,4.932-4.873,5.341l-0.024,0.056
			c1.25,0.156,2.983,0.979,3.17,3.301l0.436,5.241h-7.228l-0.101-4.518c-0.035-1.602-1.234-1.779-1.958-1.779h-1.548l-0.858,6.297
			H66.56l2.427-18.069H81.12z M74.536,16.277h1.703c2.968,0,3.121-1.552,3.072-2.274c-0.107-1.572-1.967-1.598-2.433-1.598h-1.805
			L74.536,16.277z"/>
		<path fill="#961B1E" d="M105.043,8.378l-0.562,4.258h-8.853l-0.365,2.609h8.468l-0.545,4.129h-8.464l-0.376,2.814h9.034
			l-0.584,4.259H86.999l2.427-18.069H105.043z"/>
		<path fill="#961B1E" d="M121.661,13.334c-2.032-0.698-3.905-0.929-5.379-0.929c-1.11,0-3.089,0.104-3.005,1.341
			c0.059,0.825,1.176,0.979,2.3,1.188c2.488,0.465,6.039,1.086,6.277,4.567c0.13,1.912-0.748,3.795-1.81,4.854
			c-2.176,2.17-5.954,2.402-7.812,2.402c-3.175,0-5.661-0.494-7.37-0.955l0.642-4.597c2.28,0.928,4.469,1.216,6.069,1.216
			c2.813,0,3.302-0.775,3.258-1.421c-0.051-0.75-0.836-0.902-1.544-1.059c-3.693-0.827-6.752-1.343-6.993-4.879
			c-0.228-3.33,2.334-6.994,9.537-6.994c1.832,0,4.138,0.153,6.465,0.617L121.661,13.334z"/>
		<path fill="#961B1E" d="M138.752,13.334c-2.036-0.698-3.91-0.929-5.382-0.929c-1.11,0-3.091,0.104-3.005,1.341
			c0.055,0.825,1.177,0.979,2.301,1.188c2.482,0.465,6.037,1.086,6.272,4.567c0.135,1.912-0.746,3.795-1.809,4.854
			c-2.174,2.17-5.951,2.402-7.81,2.402c-3.177,0-5.661-0.494-7.371-0.955l0.641-4.597c2.285,0.928,4.471,1.216,6.07,1.216
			c2.813,0,3.303-0.775,3.262-1.421c-0.056-0.75-0.837-0.902-1.545-1.059c-3.695-0.827-6.752-1.343-6.996-4.879
			c-0.227-3.33,2.336-6.994,9.536-6.994c1.833,0,4.141,0.153,6.47,0.617L138.752,13.334z"/>
		<path fill="#961B1E" d="M155.83,8.378l3.999,18.069h-7.277l-0.704-3.873h-5.445l-1.722,3.873h-6.918l8.752-18.069H155.83z
			 M150.42,12.663l-2.631,5.652h3.844l-1.108-5.652H150.42z"/>
		<path fill="#A6A8AB" d="M161.994,21.464h5.625l-0.666,4.983h-5.627L161.994,21.464z"/>
		<path fill="#A6A8AB" d="M183.494,8.378c2.48,0,5.149,1.288,5.343,4.131c0.188,2.761-1.907,4.932-4.874,5.341l-0.021,0.056
			c1.248,0.156,2.982,0.979,3.169,3.301l0.436,5.241h-7.228l-0.104-4.518c-0.031-1.602-1.23-1.779-1.955-1.779h-1.546l-0.859,6.297
			h-6.921l2.429-18.069H183.494z M176.915,16.277h1.7c2.967,0,3.122-1.552,3.071-2.274c-0.106-1.572-1.968-1.598-2.433-1.598h-1.806
			L176.915,16.277z"/>
		<path fill="#A6A8AB" d="M197.312,19.091c-0.051,0.411-0.099,0.826-0.072,1.237c0.021,0.311,0.072,0.647,0.245,0.932
			c0.179,0.309,0.654,0.85,1.632,0.85c1.989,0,2.381-1.806,2.532-2.994l1.435-10.737H210l-1.414,10.61
			c-0.413,3.096-1.795,7.77-10.027,7.77c-6.482,0-8.132-3.02-8.297-5.425c-0.045-0.667,0.017-1.287,0.101-1.983l1.466-10.972h6.918
			L197.312,19.091z"/>
	</g>
</g>
</svg>
