<?xml version="1.0" encoding="utf-8"?>
<!-- Generator: Adobe Illustrator 15.0.0, SVG Export Plug-In . SVG Version: 6.00 Build 0)  -->
<!DOCTYPE svg PUBLIC "-//W3C//DTD SVG 1.1//EN" "http://www.w3.org/Graphics/SVG/1.1/DTD/svg11.dtd">
<svg version="1.1" id="Слой_1" xmlns="http://www.w3.org/2000/svg" xmlns:xlink="http://www.w3.org/1999/xlink" x="0px" y="0px"
	 width="74px" height="24px" viewBox="0 0 74 24" enable-background="new 0 0 74 24" xml:space="preserve">
<g>
	<polygon fill-rule="evenodd" clip-rule="evenodd" fill="#00579F" points="26.049,23.654 29.807,0.42 35.813,0.42 32.056,23.654 
		26.049,23.654 	"/>
	<path fill-rule="evenodd" clip-rule="evenodd" fill="#00579F" d="M53.834,0.989C52.647,0.519,50.769,0,48.445,0
		c-5.933,0-10.11,3.164-10.136,7.687c-0.049,3.337,2.991,5.19,5.266,6.303c2.323,1.138,3.114,1.879,3.114,2.893
		c-0.024,1.557-1.878,2.273-3.608,2.273c-2.397,0-3.684-0.37-5.636-1.236l-0.791-0.37l-0.84,5.216
		c1.409,0.642,4.005,1.21,6.699,1.235c6.303,0,10.407-3.114,10.456-7.934c0.024-2.646-1.582-4.672-5.043-6.328
		c-2.101-1.063-3.387-1.78-3.387-2.867C44.564,5.882,45.627,4.87,48,4.87c1.953-0.05,3.387,0.42,4.475,0.89l0.544,0.247
		L53.834,0.989L53.834,0.989z"/>
	<path fill-rule="evenodd" clip-rule="evenodd" fill="#00579F" d="M61.818,15.423c0.494-1.334,2.397-6.5,2.397-6.5
		c-0.024,0.05,0.494-1.359,0.791-2.224L65.428,8.7c0,0,1.137,5.562,1.384,6.723C65.872,15.423,63.005,15.423,61.818,15.423
		L61.818,15.423z M69.234,0.42h-4.647c-1.434,0-2.521,0.42-3.14,1.928l-8.924,21.306h6.304c0,0,1.038-2.868,1.261-3.485
		c0.692,0,6.822,0,7.713,0c0.173,0.815,0.716,3.485,0.716,3.485h5.563L69.234,0.42L69.234,0.42z"/>
	<path fill-rule="evenodd" clip-rule="evenodd" fill="#00579F" d="M21.031,0.42l-5.883,15.843l-0.643-3.214
		C13.418,9.343,10.006,5.314,6.2,3.312l5.389,20.317h6.353L27.384,0.42H21.031L21.031,0.42z"/>
	<path fill-rule="evenodd" clip-rule="evenodd" fill="#FAA61A" d="M9.685,0.42H0.02L-0.079,0.89
		c7.54,1.928,12.533,6.575,14.584,12.16L12.404,2.373C12.058,0.89,10.996,0.469,9.685,0.42L9.685,0.42z"/>
</g>
</svg>
