<svg width="14" height="18" viewBox="0 0 14 18" fill="none" xmlns="http://www.w3.org/2000/svg">
<path d="M13.5808 15.5464L12.6234 5.01188C12.5964 4.72163 12.3534 4.5 12.062 4.5H10.3745V3.375C10.3745 2.4705 10.0247 1.62113 9.38904 0.9855C8.75341 0.349875 7.90404 0 6.99954 0C5.13878 0 3.62453 1.51425 3.62453 3.375V4.5H1.93703C1.64566 4.5 1.40266 4.72163 1.37678 5.01188L0.419407 15.5464C0.362032 16.1741 0.573532 16.8019 0.998782 17.2676C1.42403 17.7334 2.02928 18 2.66041 18H11.3398C11.9709 18 12.5762 17.7334 13.0014 17.2676C13.4267 16.8019 13.637 16.1741 13.5808 15.5464ZM4.74953 3.375C4.74953 2.13413 5.75866 1.125 6.99954 1.125C7.60366 1.125 8.16954 1.35788 8.59366 1.78088C9.01779 2.20388 9.24954 2.77088 9.24954 3.375V4.5H4.74953V3.375ZM12.17 16.5094C11.954 16.7445 11.6593 16.875 11.3387 16.875H2.66041C2.34091 16.875 2.04503 16.7445 1.83016 16.5083C1.61416 16.272 1.51178 15.9671 1.54103 15.6476L2.45116 5.625H3.62453V7.3125C3.62453 7.623 3.87653 7.875 4.18703 7.875C4.49753 7.875 4.74953 7.623 4.74953 7.3125V5.625H9.24954V7.3125C9.24954 7.623 9.50154 7.875 9.81204 7.875C10.1225 7.875 10.3745 7.623 10.3745 7.3125V5.625H11.5479L12.4592 15.6488C12.4884 15.9671 12.386 16.2731 12.17 16.5094Z" fill="#525458"/>
</svg>
